# xmcd CD database file
#
# Track frame offsets:
#	150
#	24912
#	45350
#	65900
#	86712
#	106125
#	123612
#	140487
#	163550
#
# Disc length: 2354 seconds
#
# Revision: 0
# Processed by: cddbd v1.5PL3 Copyright (c) Steve Scherf et al.
# Submitted via: CDex 1.51
#
DISCID=74093009
DTITLE=松本英子 - 君の音
DYEAR=2003
DGENRE=Pop
TTITLE0=今年の冬
TTITLE1=思いの花束
TTITLE2=ワインの匂い
TTITLE3=花
TTITLE4=日常
TTITLE5=Forever Friends
TTITLE6=いつも通り
TTITLE7=Squall
TTITLE8=夢見るシャンソン人形
EXTD=YEAR: 2003
EXTT0=
EXTT1=
EXTT2=
EXTT3=
EXTT4=
EXTT5=
EXTT6=
EXTT7=
EXTT8=
PLAYORDER=
